<?xml version="1.0"?>
<svg xmlns="http://www.w3.org/2000/svg" viewBox="0 0 64 64" width="512" height="512"><g id="Browser"><path d="M53,11V53H7a4,4,0,0,1-4-4V11Z" style="fill:#78b9eb"/><polygon points="53 11 53 53 7 53 49 11 53 11" style="fill:#5aaae7"/><path d="M46,17H10a1,1,0,0,0-1,1V36a1,1,0,0,0,1,1H47V18A1,1,0,0,0,46,17Z" style="fill:#ffde55"/><path d="M56.67,48.62A11.122,11.122,0,0,1,55.4,51.7l2.62,3.49-2.83,2.83L51.7,55.4a11.122,11.122,0,0,1-3.08,1.27L48,61H44l-.62-4.33A11.122,11.122,0,0,1,40.3,55.4l-3.49,2.62-2.83-2.83L35.62,53l.98-1.3a11.122,11.122,0,0,1-1.27-3.08L31,48V44l4.33-.62A11.122,11.122,0,0,1,36.6,40.3L34.12,37l-.14-.19,2.83-2.83L40.3,36.6a11.122,11.122,0,0,1,3.08-1.27L44,31h4l.62,4.33A11.122,11.122,0,0,1,51.7,36.6l1.3-.98,2.19-1.64,2.83,2.83L55.4,40.3a11.122,11.122,0,0,1,1.27,3.08L61,44v4Z" style="fill:#ffa733"/><path d="M53,7v4H3V7A4,4,0,0,1,7,3H49A4,4,0,0,1,53,7Z" style="fill:#ff7956"/><circle cx="46" cy="46" r="6" style="fill:#ff6243"/><rect x="8" y="6" width="2" height="2" style="fill:#ffd422"/><rect x="12" y="6" width="2" height="2" style="fill:#00ccb3"/><rect x="16" y="6" width="2" height="2" style="fill:#ff5023"/><rect x="22" y="6" width="22" height="2" style="fill:#e6e7e8"/><rect x="9" y="42" width="16" height="2" style="fill:#3d9ae2"/><rect x="9" y="46" width="16" height="2" style="fill:#3d9ae2"/><rect x="27" y="26" width="2" height="2" style="fill:#ffcd00"/><rect x="31" y="26" width="4" height="2" style="fill:#ffcd00"/><rect x="21" y="26" width="4" height="2" style="fill:#ffcd00"/><rect x="45" y="35" width="2" height="2" style="fill:#ee8700"/><rect x="37.929" y="37.929" width="2" height="2" transform="translate(-16.125 38.929) rotate(-45)" style="fill:#ee8700"/><rect x="35" y="45" width="2" height="2" style="fill:#ee8700"/><rect x="37.929" y="52.071" width="2" height="2" transform="translate(-26.125 43.071) rotate(-45)" style="fill:#ee8700"/><rect x="45" y="55" width="2" height="2" style="fill:#ee8700"/><rect x="52.071" y="52.071" width="2" height="2" transform="translate(-21.983 53.071) rotate(-45)" style="fill:#ee8700"/><rect x="55" y="45" width="2" height="2" style="fill:#ee8700"/><rect x="52.071" y="37.929" width="2" height="2" transform="translate(-11.983 48.929) rotate(-45)" style="fill:#ee8700"/></g></svg>
