<svg height="512pt" viewBox="0 0 512 512" width="512pt" xmlns="http://www.w3.org/2000/svg"><path d="m425.382812 163.578125h-51.527343c-22.394531 0-43.324219-11.140625-55.824219-29.722656h163.175781c-12.503906 18.582031-33.429687 29.722656-55.824219 29.722656zm0 0" fill="#69ebfc"/><path d="m220.28125 237.292969h71.4375v238.988281h-71.4375zm0 0" fill="#5861c7"/><path d="m97.214844 499.355469v1.054687c0 6.398438 5.1875 11.589844 11.589844 11.589844h294.394531c6.402343 0 11.589843-5.1875 11.589843-11.589844v-1.054687c0-12.742188-10.328124-23.074219-23.074218-23.074219h-271.429688c-12.742187 0-23.070312 10.332031-23.070312 23.074219zm0 0" fill="#6770e6"/><path d="m403.199219 498h-294.398438c-4.472656 0-8.347656-2.539062-10.277343-6.25-.835938 2.382812-1.3125 4.9375-1.3125 7.605469v1.054687c0 6.398438 5.1875 11.589844 11.589843 11.589844h294.398438c6.398437 0 11.589843-5.1875 11.589843-11.589844v-1.054687c0-2.667969-.476562-5.222657-1.3125-7.605469-1.929687 3.710938-5.804687 6.25-10.277343 6.25zm0 0" fill="#5861c7"/><path d="m0 183.414062v105.195313c0 19.738281 23.886719 30.644531 38.035156 16.882813.460938-.449219.914063-.921876 1.347656-1.410157 10.480469-11.792969 28.90625-11.792969 39.386719 0 10.476563 11.792969 28.902344 11.792969 39.382813 0 10.480468-11.792969 28.902344-11.792969 39.382812 0 10.480469 11.792969 28.90625 11.792969 39.386719 0 10.476563-11.792969 28.902344-11.792969 39.382813 0 10.480468 11.792969 28.902343 11.792969 39.382812 0s28.90625-11.792969 39.382812 0c10.480469 11.792969 28.90625 11.792969 39.386719 0s28.902344-11.792969 39.382813 0c10.480468 11.792969 28.902344 11.792969 39.382812 0 10.480469-11.792969 28.90625-11.792969 39.386719 0 .433594.492188.886719.960938 1.347656 1.410157 14.148438 13.761718 38.035157 2.855468 38.035157-16.882813v-105.195313c0-10.953124-8.882813-19.835937-19.839844-19.835937h-472.3125c-10.957032 0-19.839844 8.882813-19.839844 19.835937zm0 0" fill="#ff8354"/><path d="m492.160156 163.578125h-472.320312c-10.957032 0-19.839844 8.882813-19.839844 19.835937v14c0-10.953124 8.882812-19.835937 19.839844-19.835937h472.320312c10.957032 0 19.839844 8.882813 19.839844 19.835937v-14c0-10.953124-8.882812-19.835937-19.839844-19.835937zm0 0" fill="#ffac8c"/><path d="m138.144531 163.578125h-51.527343c-22.394532 0-43.320313-11.140625-55.824219-29.722656h163.175781c-12.5 18.582031-33.429688 29.722656-55.824219 29.722656zm0 0" fill="#69ebfc"/><path d="m30.792969 133.855469c1.414062 2.101562 2.949219 4.09375 4.570312 6h154.035157c1.621093-1.90625 3.15625-3.898438 4.570312-6zm0 0" fill="#a1f1fc"/><path d="m318.03125 133.855469c1.414062 2.101562 2.949219 4.09375 4.570312 6h154.035157c1.621093-1.90625 3.15625-3.898438 4.570312-6zm0 0" fill="#a1f1fc"/><path d="m265.316406 92.121094c0-14.585938 0-18.6875 0-18.6875h-18.632812v18.6875c0 14.585937-28.972656 18.21875-28.972656 42.414062 0 24.195313 15.316406 29.042969 22.972656 29.042969h15.316406 15.316406c7.65625 0 22.972656-4.847656 22.972656-29.042969 0-24.199218-28.972656-27.828125-28.972656-42.414062zm0 0" fill="#69ebfc"/><path d="m275.804688 12.070312v14.203126c0 8.953124-7.257813 16.210937-16.210938 16.210937h-7.933594v-6.269531c-.003906-13.332032 10.808594-24.144532 24.144532-24.144532zm0 0" fill="#e0734a"/><path d="m251.65625 36.21875v4.84375c0-13.332031 10.8125-24.140625 24.144531-24.140625v-4.851563c-13.332031 0-24.144531 10.8125-24.144531 24.148438zm0 0" fill="#ff8354"/><path d="m259.910156 42.484375c-6.429687 0-11.640625-5.210937-11.640625-11.640625v-30.84375c9.871094 0 17.875 8.003906 17.875 17.875v18.378906c0 3.441406-2.789062 6.230469-6.234375 6.230469zm0 0" fill="#ff8354"/><path d="m248.269531 0v4.847656c9.871094 0 17.875 8.003906 17.875 17.875v-4.847656c0-9.871094-8.003906-17.875-17.875-17.875zm0 0" fill="#ffac8c"/><path d="m267.796875 46.664062c-2.835937 0-5.496094.761719-7.796875 2.074219v-11h-8v16.898438c-2.304688-1.3125-4.960938-2.074219-7.796875-2.074219h-5.210937v8h5.210937c4.300781 0 7.796875 3.496094 7.796875 7.796875v5.074219h8v-10.972656c0-4.300782 3.5-7.796876 7.796875-7.796876h5.210937v-8zm0 0" fill="#5861c7"/><path d="m236.195312 12.070312v14.203126c0 8.953124 7.257813 16.210937 16.210938 16.210937h7.933594v-6.269531c.003906-13.332032-10.808594-24.144532-24.144532-24.144532zm0 0" fill="#ff8354"/><path d="m236.195312 12.070312v4.851563c13.335938 0 24.144532 10.808594 24.144532 24.140625v-4.84375c.003906-13.335938-10.808594-24.148438-24.144532-24.148438zm0 0" fill="#ffac8c"/></svg>