<svg height="512pt" viewBox="0 0 512 512" width="512pt" xmlns="http://www.w3.org/2000/svg"><path d="m512 256c0 25.222656-3.648438 49.589844-10.449219 72.609375-6.570312 22.289063-16.101562 43.3125-28.140625 62.609375-45.191406 72.515625-125.667968 120.78125-217.410156 120.78125-141.386719 0-256-114.613281-256-256 0-5.058594.144531-10.074219.4375-15.058594 4.828125-83.234375 49.414062-155.792968 115.054688-198.976562 40.332031-26.53125 88.617187-41.964844 140.507812-41.964844 141.386719 0 256 114.613281 256 256zm0 0" fill="#854f89"/><path d="m207.058594 192.242188v198.976562h68.316406l96.378906 55.074219-23.191406-55.074219h95.070312c12.039063-19.296875 21.566407-40.320312 28.140626-62.609375v-136.367187zm0 0" fill="#713775"/><path d="m259.488281 41.964844v198.976562h-68.3125l-96.382812 55.078125 23.1875-55.078125h-117.542969c4.828125-83.234375 49.414062-155.792968 115.054688-198.976562zm0 0" fill="#713775"/><path d="m16.78125 41.964844h264.714844v198.976562h-264.714844zm0 0" fill="#f74f4f"/><path d="m145.222656 228.503906-28.425781 67.511719 124.363281-71.0625zm0 0" fill="#f74f4f"/><g fill="#3d4159"><path d="m124.859375 141.449219c0 8.109375-6.570313 14.683593-14.679687 14.683593-8.105469 0-14.679688-6.574218-14.679688-14.683593 0-8.105469 6.574219-14.679688 14.679688-14.679688 8.109374 0 14.679687 6.574219 14.679687 14.679688zm0 0"/><path d="m163.820312 141.449219c0 8.109375-6.570312 14.683593-14.679687 14.683593s-14.679687-6.574218-14.679687-14.683593c0-8.105469 6.570312-14.679688 14.679687-14.679688s14.679687 6.574219 14.679687 14.679688zm0 0"/><path d="m202.78125 141.449219c0 8.109375-6.574219 14.683593-14.679688 14.683593-8.109374 0-14.683593-6.574218-14.683593-14.683593 0-8.105469 6.574219-14.679688 14.683593-14.679688 8.105469 0 14.679688 6.574219 14.679688 14.679688zm0 0"/></g><path d="m221.257812 192.242188h60.238282v48.699218h-60.238282zm0 0" fill="#dd3033"/><path d="m501.550781 192.242188v136.367187c-6.570312 22.289063-16.101562 43.3125-28.140625 62.609375h-236.574218v-198.976562zm0 0" fill="#ffe152"/><path d="m373.105469 378.78125 28.425781 67.511719-124.363281-71.0625zm0 0" fill="#ffe152"/><path d="m422.832031 291.726562c0 8.109376-6.574219 14.683594-14.683593 14.683594-8.105469 0-14.679688-6.574218-14.679688-14.683594 0-8.105468 6.574219-14.679687 14.679688-14.679687 8.109374 0 14.683593 6.574219 14.683593 14.679687zm0 0" fill="#3d4159"/><path d="m383.871094 291.726562c0 8.109376-6.574219 14.683594-14.679688 14.683594-8.109375 0-14.683594-6.574218-14.683594-14.683594 0-8.105468 6.574219-14.679687 14.683594-14.679687 8.105469 0 14.679688 6.574219 14.679688 14.679687zm0 0" fill="#3d4159"/><path d="m344.910156 291.726562c0 8.109376-6.574218 14.683594-14.683594 14.683594-8.105468 0-14.679687-6.574218-14.679687-14.683594 0-8.105468 6.574219-14.679687 14.679687-14.679687 8.109376 0 14.683594 6.574219 14.683594 14.679687zm0 0" fill="#3d4159"/></svg>