<svg height="436pt" viewBox="0 -6 436.91574 436" width="436pt" xmlns="http://www.w3.org/2000/svg"><path d="m218.457031 328.136719-204.800781-177.492188h409.601562zm0 0" fill="#5d038e"/><path d="m218.457031 341.792969c-3.183593 0-6.371093-1.109375-8.945312-3.335938l-204.800781-177.492187c-4.304688-3.734375-5.839844-9.746094-3.839844-15.09375 1.988281-5.332032 7.09375-8.878906 12.785156-8.878906h409.601562c5.695313 0 10.800782 3.546874 12.785157 8.878906 2 5.347656.46875 11.359375-3.839844 15.09375l-204.800781 177.492187c-2.570313 2.226563-5.757813 3.335938-8.945313 3.335938zm-168.199219-177.496094 168.199219 145.773437 168.203125-145.773437zm0 0" fill="#5d038e"/><path d="m218.457031 27.765625-204.800781 122.878906h409.601562zm0 0" fill="#5d038e"/><path d="m423.257812 164.296875h-409.601562c-6.132812 0-11.519531-4.089844-13.160156-10.011719-1.636719-5.90625.867187-12.1875 6.136718-15.347656l204.796876-122.878906c4.320312-2.585938 9.734374-2.585938 14.054687 0l204.800781 122.878906c5.265625 3.160156 7.773438 9.441406 6.132813 15.347656-1.640625 5.921875-7.027344 10.011719-13.160157 10.011719zm-360.304687-27.304687h311.011719l-155.507813-93.308594zm0 0" fill="#5d038e"/><path d="m54.617188 14.109375h327.679687v341.335937h-327.679687zm0 0" fill="#fff"/><path d="m382.296875 369.097656h-327.679687c-7.546876 0-13.652344-6.105468-13.652344-13.652344v-341.335937c0-7.546875 6.105468-13.652344 13.652344-13.652344h327.679687c7.546875 0 13.65625 6.105469 13.65625 13.652344v341.335937c0 7.546876-6.109375 13.652344-13.65625 13.652344zm-314.027344-27.304687h300.375v-314.027344h-300.375zm0 0" fill="#5d038e"/><path d="m218.457031 328.136719-204.800781-177.492188v259.414063h409.601562v-259.414063zm0 0" fill="#d5d5d5"/><g fill="#5d038e"><path d="m423.257812 423.710938h-409.601562c-7.546875 0-13.65234375-6.105469-13.65234375-13.652344v-259.414063c0-5.347656 3.12109375-10.199219 7.98828175-12.414062 4.851562-2.25 10.574218-1.398438 14.613281 2.09375l195.851562 169.746093 195.855469-169.746093c4.039062-3.492188 9.746094-4.347657 14.613281-2.09375 4.867188 2.214843 7.984375 7.066406 7.984375 12.414062v259.410157c0 7.550781-6.105468 13.65625-13.652344 13.65625zm-395.945312-27.304688h382.292969v-215.855469l-182.203125 157.90625c-5.144532 4.453125-12.746094 4.453125-17.890625 0l-182.199219-157.90625zm0 0"/><path d="m13.65625 423.710938c-3.800781 0-7.574219-1.574219-10.277344-4.664063-4.960937-5.667969-4.386718-14.296875 1.292969-19.269531l109.226563-95.570313c5.652343-4.976562 14.265624-4.414062 19.265624 1.292969 4.960938 5.664062 4.386719 14.292969-1.292968 19.265625l-109.226563 95.574219c-2.585937 2.265625-5.785156 3.371094-8.988281 3.371094zm0 0"/><path d="m423.257812 423.710938c-3.199218 0-6.398437-1.105469-8.988281-3.375l-109.226562-95.570313c-5.679688-4.976563-6.253907-13.601563-1.292969-19.269531 4.988281-5.707032 13.601562-6.265625 19.265625-1.292969l109.226563 95.574219c5.679687 4.972656 6.253906 13.601562 1.296874 19.265625-2.707031 3.09375-6.480468 4.667969-10.28125 4.667969zm0 0"/><path d="m204.804688 205.257812c-30.121094 0-54.613282-24.492187-54.613282-54.613281 0-30.121093 24.492188-54.613281 54.613282-54.613281 30.117187 0 54.613281 24.492188 54.613281 54.613281 0 30.121094-24.496094 54.613281-54.613281 54.613281zm0-81.921874c-15.054688 0-27.308594 12.253906-27.308594 27.308593 0 15.054688 12.253906 27.308594 27.308594 27.308594 15.050781 0 27.304687-12.253906 27.304687-27.308594 0-15.054687-12.253906-27.308593-27.304687-27.308593zm0 0"/><path d="m218.339844 259.859375c-5.269532 0-10.574219-.375-15.855469-1.121094-47.277344-6.734375-85.132813-44.425781-92.039063-91.679687-5.054687-34.480469 5.917969-68.363282 30.117188-92.976563 24.175781-24.613281 57.816406-36.183593 92.359375-31.730469 54.03125 6.960938 94.761719 54.988282 94.761719 111.707032 0 28.226562-22.972656 51.199218-51.199219 51.199218h-4.039063c-22.238281 0-40.335937-18.09375-40.335937-40.332031v-68.894531c0-7.546875 6.109375-13.652344 13.65625-13.652344s13.652344 6.105469 13.652344 13.652344v68.894531c0 7.183594 5.839843 13.027344 13.027343 13.027344h4.039063c13.175781 0 23.894531-10.722656 23.894531-23.894531 0-43.027344-30.492187-79.414063-70.945312-84.613282-26.027344-3.398437-51.253906 5.320313-69.402344 23.773438-18.144531 18.464844-26.371094 43.933594-22.574219 69.878906 5.09375 34.800782 34.054688 63.640625 68.867188 68.601563 15.160156 2.160156 30.332031.226562 44.015625-5.5625 6.945312-2.933594 14.960937.320312 17.890625 7.253906 2.933593 6.945313-.304688 14.960937-7.253907 17.894531-13.4375 5.679688-27.933593 8.574219-42.636718 8.574219zm0 0"/></g></svg>