<svg height="512pt" viewBox="-1 0 512 512" width="512pt" xmlns="http://www.w3.org/2000/svg"><path d="m328.3125 226.675781c0 11.949219-3.769531 23.023438-10.171875 32.09375h-.007813c-10.074218 14.277344-26.703124 23.601563-45.519531 23.601563-18.054687 0-34.105469-8.59375-44.285156-21.914063h-22.339844l-106.03125.007813c-10.167969 13.3125-26.207031 21.90625-44.257812 21.90625-30.765625 0-55.699219-24.9375-55.699219-55.695313 0-28.613281 21.570312-52.167969 49.335938-55.324219v-56.53125c0-31.707031 12.851562-60.414062 33.628906-81.191406 17.980468-17.980468 41.910156-30.027344 68.574218-32.941406 4.140626-.457031 8.351563-.6875 12.617188-.6875.996094 0 1.988281.015625 2.976562.0390625 4.265626.1093755 8.476563.4531255 12.617188 1.0117185 56.035156 7.609375 99.226562 55.644531 99.226562 113.769531v56.53125c27.765626 3.15625 49.335938 26.710938 49.335938 55.324219zm0 0" fill="#f45395"/><g fill="#ce1b6d"><path d="m179.75 76.425781c0 7.5625 7.695312 31.027344 28.28125 42.8125 20.582031 11.785157-43.429688 8.414063-43.429688 8.414063"/><path d="m179.75 1.050781v106.863281h-15.59375v-107.914062c.996094 0 1.988281.015625 2.976562.0390625 4.265626.1093755 8.476563.4531255 12.617188 1.0117185zm0 0"/><path d="m318.128906 258.769531c-10.074218 14.277344-26.703125 23.601563-45.515625 23.601563-18.054687 0-34.105469-8.597656-44.285156-21.917969h-22.34375v-20.371094l36.410156-64.261719c-.003906 31.691407 19.523438 82.941407 75.734375 82.949219zm0 0"/><path d="m163.25.0078125c-18.882812.3945315-35.949219 13.1679685-48.359375 33.6210935-12.601563 20.777344-20.402344 49.484375-20.402344 81.191406v56.527344c-16.84375 3.160156-29.925781 26.714844-29.925781 55.328125 0 21.136719 7.144531 39.53125 17.671875 48.96875-7.890625 4.289063-16.929687 6.726563-26.539063 6.726563-30.765624 0-55.695312-24.941406-55.695312-55.695313 0-28.613281 21.566406-52.167969 49.332031-55.328125v-56.527344c0-31.707031 12.855469-60.414062 33.632813-81.191406 20.574218-20.578125 48.9375-33.382812 80.285156-33.6210935zm0 0"/></g><path d="m258.238281 174.0625v17.605469c0 45.851562-32.808593 84.039062-76.21875 92.382812-4.972656.957031-10.078125 1.527344-15.292969 1.667969h-.125c-.894531.023438-1.796874.03125-2.707031.03125-51.859375-.101562-93.832031-42.226562-93.832031-94.085938v-17.601562c0-51.621094 94.09375-58.792969 94.09375-93.855469-.003906 35.0625 94.082031 42.234375 94.082031 93.855469zm0 0" fill="#ffd0a6"/><path d="m180.347656 284.351562c-4.441406.773438-8.992187 1.242188-13.621094 1.367188h-.128906c-.902344.023438-1.796875.03125-2.707031.03125-51.863281-.101562-93.828125-42.226562-93.828125-94.085938v-17.601562c0-20.402344 14.703125-33.867188 32.488281-44.84375v62.445312c0 46.390626 33.585938 84.992188 77.796875 92.6875zm0 0" fill="#e8b182"/><path d="m164.148438 231.695312c-12.636719 0-24.515626-4.917968-33.449219-13.851562-2.316407-2.320312-2.316407-6.078125 0-8.394531 2.320312-2.320313 6.078125-2.320313 8.398437 0 6.691406 6.691406 15.585938 10.375 25.050782 10.375 9.460937 0 18.359374-3.683594 25.050781-10.375 2.320312-2.320313 6.078125-2.320313 8.394531 0 2.320312 2.316406 2.320312 6.074219 0 8.394531-8.933594 8.933594-20.8125 13.851562-33.445312 13.851562zm0 0" fill="#dda378"/><path d="m123.164062 184.070312c-3.277343 0-5.9375-2.660156-5.9375-5.9375v-23.128906c0-3.277344 2.660157-5.933594 5.9375-5.933594 3.277344 0 5.933594 2.65625 5.933594 5.933594v23.128906c.003906 3.277344-2.65625 5.9375-5.933594 5.9375zm0 0" fill="#1a414c"/><path d="m205.140625 184.070312c-3.277344 0-5.933594-2.660156-5.933594-5.9375v-23.128906c0-3.277344 2.65625-5.933594 5.933594-5.933594 3.28125 0 5.9375 2.65625 5.9375 5.933594v23.128906c0 3.277344-2.65625 5.9375-5.9375 5.9375zm0 0" fill="#1a414c"/><path d="m477.28125 182.808594c0 14.132812-10.886719 25.714844-24.726562 26.824218-.722657.0625-1.457032.089844-2.191407.089844-1.886719 0-3.722656-.1875-5.496093-.5625h-162.121094c-1.777344.375-3.613282.5625-5.496094.5625h-.019531c-14.863281-.011718-26.898438-12.054687-26.898438-26.914062 0-14.011719 10.707031-25.523438 24.390625-26.789063.832032-.085937 1.675782-.121093 2.527344-.121093 1.128906 0 2.238281.066406 3.332031.199218h166.445313c1.097656-.132812 2.203125-.199218 3.335937-.199218 1.59375 0 3.160157.140624 4.679688.410156 12.636719 2.207031 22.238281 13.234375 22.238281 26.5zm0 0" fill="#ffd0a6"/><path d="m453.964844 156.308594v34.09375c0 6.617187-.863282 13.0625-2.488282 19.230468-.722656.0625-1.457031.089844-2.191406.089844-1.886718 0-3.722656-.1875-5.496094-.5625h-162.125c-1.773437.375-3.609374.5625-5.496093.5625h-.015625c-1.640625-6.199218-2.507813-12.664062-2.507813-19.320312v-34.382813c.832031-.085937 1.675781-.125 2.523438-.125 1.132812 0 2.242187.070313 3.335937.203125h166.445313c1.09375-.132812 2.203125-.203125 3.335937-.203125 1.597656.003907 3.164063.144531 4.679688.414063zm0 0" fill="#e8b182"/><path d="m461.222656 190.226562c-2.550781 0-4.980468-1.488281-6.0625-3.976562-1.753906-4.035156-7.652344-2.410156-7.710937-2.394531-3.515625.996093-7.164063-1.042969-8.160157-4.550781-.996093-3.511719 1.039063-7.164063 4.550782-8.164063.417968-.117187 4.230468-1.148437 8.757812-.671875 6.832032.71875 12.046875 4.453125 14.683594 10.511719 1.453125 3.347656-.082031 7.242187-3.425781 8.695312-.859375.375-1.753907.550781-2.632813.550781zm0 0" fill="#dda378"/><path d="m266.390625 190.226562c-.882813 0-1.777344-.179687-2.636719-.550781-3.34375-1.457031-4.875-5.351562-3.421875-8.695312 2.859375-6.566407 10.246094-12.664063 22.394531-10.09375 3.570313.753906 5.851563 4.261719 5.097657 7.832031-.753907 3.570312-4.261719 5.851562-7.832031 5.097656-2.214844-.46875-6.144532-.773437-7.542969 2.4375-1.078125 2.484375-3.511719 3.972656-6.058594 3.972656zm0 0" fill="#dda378"/><path d="m454.71875 254.25-118.140625-65.457031-56.859375-31.496094c-16.78125-31.640625-36.175781-149.019531 24.039062-133.699219 0 0 43.160157-25.636718 97.097657-21.011718 19.789062 1.691406 41.027343 7.457031 62.125 20.058593 78.589843 46.953125 46.761719 203.023438-8.261719 231.605469zm0 0" fill="#ffe785"/><path d="m358.925781 118.648438c11.488281 15.914062-1.355469 42.605468-22.347656 70.144531l-56.859375-31.496094c-16.78125-31.640625-36.175781-149.019531 24.039062-133.699219 0 0 43.160157-25.636718 97.097657-21.011718-75.660157-6.550782-73.519531 72.292968-41.929688 116.0625zm0 0" fill="#f2a755"/><path d="m471.804688 160.355469v39.222656c0 46.804687-33.492188 85.789063-77.8125 94.300781h-.03125c-5.886719 1.148438-11.976563 1.742188-18.210938 1.742188-53.050781 0-96.03125-43.003906-96.03125-96.042969v-42.28125c31.160156-26.441406 32.203125-72.464844 32.203125-72.464844.597656 6.871094 4.125 12.53125 9.765625 17.285157 34.828125 29.4375 150.117188 24.488281 150.117188 58.238281zm0 0" fill="#e8b182"/><path d="m471.808594 170.75v28.832031c0 46.804688-33.492188 85.785157-77.8125 94.296875h-.03125c-44.308594-8.53125-77.765625-47.503906-77.765625-94.296875v-65.40625c0-7.832031.9375-15.453125 2.714843-22.742187.90625.269531 1.828126.625 2.777344 1.074218 34.828125 29.4375 150.117188 24.488282 150.117188 58.242188zm0 0" fill="#ffd0a6"/><path d="m375.757812 242.035156c-14.558593 0-28.25-5.671875-38.542968-15.964844-2.445313-2.449218-2.445313-6.414062 0-8.863281 2.449218-2.445312 6.414062-2.445312 8.863281 0 7.925781 7.929688 18.46875 12.296875 29.679687 12.296875 11.210938 0 21.753907-4.367187 29.679688-12.296875 2.449219-2.445312 6.417969-2.445312 8.859375 0 2.449219 2.449219 2.449219 6.414063.003906 8.863281-10.296875 10.292969-23.984375 15.964844-38.542969 15.964844zm0 0" fill="#dda378"/><path d="m333.917969 192.894531c-3.460938 0-6.265625-2.808593-6.265625-6.265625v-23.769531c0-3.460937 2.804687-6.265625 6.265625-6.265625 3.460937 0 6.265625 2.804688 6.265625 6.265625v23.769531c0 3.460938-2.804688 6.265625-6.265625 6.265625zm0 0" fill="#1a414c"/><path d="m417.597656 192.894531c-3.457031 0-6.265625-2.808593-6.265625-6.265625v-23.769531c0-3.460937 2.808594-6.265625 6.265625-6.265625 3.460938 0 6.265625 2.804688 6.265625 6.265625v23.769531c0 3.460938-2.804687 6.265625-6.265625 6.265625zm0 0" fill="#1a414c"/><path d="m489.152344 412.757812c0 14.136719-10.886719 25.71875-24.726563 26.824219-.722656.0625-1.457031.09375-2.191406.09375-1.886719 0-3.71875-.191406-5.496094-.5625h-162.121093c-1.773438.371094-3.609376.5625-5.496094.5625h-.019532c-14.863281-.011719-26.898437-12.054687-26.898437-26.917969 0-14.011718 10.707031-25.519531 24.390625-26.789062.832031-.085938 1.675781-.121094 2.527344-.121094 1.132812 0 2.238281.066406 3.332031.203125h166.445313c1.097656-.136719 2.203124-.203125 3.335937-.203125 1.597656 0 3.164063.140625 4.679687.410156 12.636719 2.210938 22.238282 13.234376 22.238282 26.5zm0 0" fill="#ffd0a6"/><path d="m465.835938 386.257812v34.09375c0 6.621094-.859376 13.0625-2.488282 19.230469-.722656.0625-1.457031.09375-2.191406.09375-1.886719 0-3.722656-.191406-5.496094-.5625h-162.121094c-1.777343.371094-3.613281.5625-5.496093.5625h-.019531c-1.640626-6.199219-2.507813-12.667969-2.507813-19.324219v-34.382812c.832031-.085938 1.675781-.121094 2.527344-.121094 1.132812 0 2.238281.066406 3.332031.199219h166.445312c1.097657-.132813 2.203126-.199219 3.335938-.199219 1.597656 0 3.164062.140625 4.679688.410156zm0 0" fill="#e8b182"/><path d="m473.097656 420.175781c-2.550781 0-4.984375-1.484375-6.066406-3.972656-1.753906-4.035156-7.652344-2.414063-7.710938-2.398437-3.511718.996093-7.164062-1.042969-8.160156-4.550782-.996094-3.511718 1.042969-7.164062 4.550782-8.160156.417968-.121094 4.234374-1.152344 8.757812-.675781 6.835938.722656 12.046875 4.457031 14.683594 10.515625 1.453125 3.347656-.078125 7.238281-3.425782 8.695312-.855468.371094-1.75.546875-2.628906.546875zm0 0" fill="#dda378"/><path d="m278.261719 420.175781c-.878907 0-1.777344-.175781-2.632813-.550781-3.347656-1.457031-4.878906-5.347656-3.421875-8.695312 2.855469-6.5625 10.242188-12.664063 22.390625-10.09375 3.570313.757812 5.851563 4.261718 5.097656 7.835937-.753906 3.570313-4.261718 5.851563-7.832031 5.09375-2.214843-.464844-6.140625-.773437-7.539062 2.441406-1.082031 2.484375-3.511719 3.96875-6.0625 3.96875zm0 0" fill="#dda378"/><path d="m457.820312 373.921875v55.9375c0 40.03125-28.636718 73.371094-66.539062 80.660156-5.050781.972657-10.269531 1.480469-15.605469 1.480469-45.363281 0-82.136719-36.773438-82.136719-82.140625v-55.9375c0-45.363281 36.773438-82.144531 82.136719-82.144531 5.335938 0 10.554688.507812 15.605469 1.480468 16.425781 3.15625 31.113281 11.210938 42.480469 22.578126 14.863281 14.867187 24.058593 35.402343 24.058593 58.085937zm0 0" fill="#e8b182"/><path d="m457.820312 373.921875v55.9375c0 40.03125-28.636718 73.371094-66.539062 80.660156-37.910156-7.289062-66.542969-40.628906-66.542969-80.660156v-55.9375c0-40.027344 28.636719-73.375 66.542969-80.664063 16.425781 3.15625 31.113281 11.210938 42.480469 22.578126 14.863281 14.867187 24.058593 35.402343 24.058593 58.085937zm0 0" fill="#ffd0a6"/><path d="m375.679688 470.714844c-13.109376 0-26.214844-4.988282-36.195313-14.96875-2.0625-2.066406-2.0625-5.414063 0-7.476563 2.066406-2.066406 5.414063-2.0625 7.476563 0 15.832031 15.832031 41.597656 15.835938 57.433593 0 2.066407-2.066406 5.414063-2.0625 7.476563 0s2.0625 5.410157 0 7.476563c-9.976563 9.976562-23.085938 14.96875-36.191406 14.96875zm0 0" fill="#dda378"/><path d="m339.894531 424.511719c-3.164062 0-5.726562-2.566407-5.726562-5.726563v-20.191406c0-3.164062 2.5625-5.726562 5.726562-5.726562 3.164063 0 5.726563 2.5625 5.726563 5.726562v20.191406c0 3.160156-2.566406 5.726563-5.726563 5.726563zm0 0" fill="#1a414c"/><path d="m411.464844 424.511719c-3.164063 0-5.726563-2.566407-5.726563-5.726563v-20.191406c0-3.164062 2.5625-5.726562 5.726563-5.726562 3.160156 0 5.726562 2.5625 5.726562 5.726562v20.191406c0 3.160156-2.566406 5.726563-5.726562 5.726563zm0 0" fill="#1a414c"/><path d="m457.824219 351.847656v43.433594c-40.023438 1.550781-69.089844-7.65625-89.53125-19.214844-.007813-.007812-.023438-.019531-.035157-.027344-13.53125-7.648437-23.273437-16.324218-29.917968-23.59375l-.007813.007813s-18.457031 16.898437-44.792969 20.34375v-20.949219c0-42.203125 34.210938-76.410156 76.402344-76.410156h11.472656c42.199219 0 76.410157 34.207031 76.410157 76.410156zm0 0" fill="#e8b182"/><path d="m457.824219 342.660156v43.433594c-40.023438 1.550781-69.089844-7.65625-89.53125-19.214844-.007813-.007812-.023438-.019531-.035157-.027344-13.53125-7.644531-23.273437-16.324218-29.917968-23.59375l-.007813.007813s-18.457031 16.898437-44.792969 20.34375v-20.949219c0-42.203125 34.210938-76.410156 76.402344-76.410156h11.472656c42.199219 0 76.410157 34.207031 76.410157 76.410156zm0 0" fill="#aa6952"/><path d="m368.257812 366.851562c-13.53125-7.644531-23.273437-16.324218-29.917968-23.59375l-.007813.007813s-18.457031 16.898437-44.792969 20.34375v-20.949219c0-42.203125 34.210938-76.410156 76.402344-76.410156-29.847656 17.160156-20.941406 86.9375-1.683594 100.601562zm0 0" fill="#89412b"/><path d="m204.085938 505.523438h54.894531v-152.894532c0-27.640625-11.210938-52.664062-29.320313-70.78125-18.113281-18.121094-43.140625-29.320312-70.78125-29.320312-55.289062 0-100.109375 44.820312-100.109375 100.101562v152.894532zm0 0" fill="#ffe785"/><path d="m158.078125 252.535156c-33.957031.691406-61.34375 45.246094-61.34375 100.09375v152.894532h-37.964844v-152.894532c0-55.011718 44.386719-99.667968 99.308594-100.09375zm0 0" fill="#f2a755"/><path d="m241.019531 375.679688v43.984374c0 40.03125-28.640625 73.371094-66.542969 80.65625-4.339843.835938-8.796874 1.332032-13.351562 1.457032h-.109375c-.78125.027344-1.570313.035156-2.363281.027344-45.277344-.082032-81.921875-36.859376-81.921875-82.140626v-8.859374c0-62.8125 87.664062-34.785157 112.316406-86.453126 0 0 6.691406 51.328126 51.972656 51.328126zm0 0" fill="#ffd0a6"/><path d="m241.019531 375.679688v7.429687c-45.28125 0-53.699219-46.148437-53.699219-46.148437-24.65625 51.667968-110.589843 18.457031-110.589843 81.273437v-7.429687c0-62.8125 87.664062-34.785157 112.316406-86.453126 0 0 6.691406 51.328126 51.972656 51.328126zm0 0" fill="#e8b182"/><path d="m173.015625 500.589844c-3.875.675781-7.847656 1.082031-11.890625 1.195312h-.109375c-.789063.019532-1.570313.027344-2.363281.027344-45.285156-.089844-81.921875-36.867188-81.921875-82.144531v-8.863281c0-23.238282 11.996093-34.046876 28.367187-41.054688v49.917969c0 40.503906 29.320313 74.203125 67.917969 80.921875zm0 0" fill="#e8b182"/><path d="m158.871094 454.597656c-10.574219 0-21.148438-4.027344-29.199219-12.074218-2.023437-2.027344-2.023437-5.308594 0-7.332032 2.023437-2.023437 5.304687-2.023437 7.328125 0 12.058594 12.0625 31.683594 12.0625 43.742188 0 2.023437-2.023437 5.304687-2.023437 7.328124 0 2.023438 2.023438 2.023438 5.304688 0 7.332032-8.046874 8.046874-18.621093 12.074218-29.199218 12.074218zm0 0" fill="#dda378"/><path d="m292.378906 334.539062c-3 2.996094-6.8125 4.480469-10.503906 5.132813-6.613281 1.175781-11.734375 6.296875-12.902344 12.910156-.65625 3.6875-2.132812 7.496094-5.132812 10.496094-5.984375 5.980469-16.128906-3.753906-21.746094-16.308594-1.015625-2.265625-1.878906-4.617187-2.542969-6.996093-.953125-3.378907-1.5-6.785157-1.5-10.011719l-17.222656-17.210938-3.796875-3.800781c-5.480469 0-11.507812-1.589844-16.992188-4.050781-12.5625-5.609375-22.308593-15.753907-16.324218-21.738281 3-3 6.816406-4.476563 10.511718-5.136719 6.605469-1.164063 11.726563-6.285157 12.902344-12.898438.648438-3.691406 2.128906-7.503906 5.125-10.503906 5.984375-5.984375 16.128906 3.757813 21.742188 16.320313 2.464844 5.480468 4.054687 11.507812 4.054687 16.992187l21.015625 21.015625c5.484375.007812 11.511719 1.589844 16.996094 4.050781 12.554688 5.613281 22.292969 15.753907 16.316406 21.738281zm0 0" fill="#61b4d8"/><path d="m238.046875 287.730469 21.015625 21.015625c5.488281.003906 11.511719 1.59375 17 4.050781-.890625 8.394531-4.550781 16.550781-10.984375 22.984375-6.429687 6.429688-14.589844 10.097656-22.984375 10.984375-2.457031-5.488281-4.046875-11.511719-4.046875-17.003906l-21.015625-21.015625" fill="#3598ba"/><path d="m252.90625 323.613281c-2.714844 2.714844-5.988281 4.53125-9.453125 5.4375-7.003906 1.867188-14.773437.046875-20.265625-5.4375-8.210938-8.210937-8.210938-21.519531 0-29.722656 5.492188-5.492187 13.261719-7.308594 20.265625-5.445313 3.464844.914063 6.738281 2.730469 9.453125 5.445313 8.210938 8.203125 8.210938 21.511719 0 29.722656zm0 0" fill="#3598ba"/><path d="m252.90625 323.613281c-2.714844 2.714844-5.988281 4.53125-9.453125 5.4375-3.46875-.90625-6.742187-2.722656-9.457031-5.4375-8.210938-8.210937-8.210938-21.519531 0-29.722656 2.714844-2.714844 5.988281-4.53125 9.457031-5.445313 3.464844.914063 6.738281 2.730469 9.453125 5.445313 8.210938 8.203125 8.210938 21.511719 0 29.722656zm0 0" fill="#61b4d8"/><path d="m220.828125 312.546875-3.796875-3.796875c-5.480469 0-11.507812-1.589844-16.992188-4.050781-12.5625-5.613281-22.308593-15.753907-16.324218-21.738281 3-3 6.816406-4.480469 10.511718-5.136719 6.605469-1.167969 11.726563-6.289063 12.902344-12.898438 0 7.550781 2.222656 14.53125-4.304687 18.128907-6.53125 3.609374 3.148437 18.6875 19.359375 16.660156 9.511718-1.1875 4.457031 6.371094-1.355469 12.832031zm0 0" fill="#3598ba"/><path d="m268.972656 352.578125c-.65625 3.691406-2.132812 7.5-5.132812 10.496094-5.984375 5.984375-16.128906-3.75-21.746094-16.304688-1.015625-2.269531-1.878906-4.617187-2.542969-6.996093l25.527344-3.992188c-7.914063 7.917969-3.117187 20.128906 3.894531 16.796875zm0 0" fill="#3598ba"/><path d="m135.988281 405.589844c-1.328125 0-2.652343-.507813-3.664062-1.519532-6.355469-6.355468-16.699219-6.355468-23.054688 0-2.027343 2.023438-5.308593 2.023438-7.332031 0-2.023438-2.023437-2.023438-5.304687 0-7.328124 10.398438-10.398438 27.316406-10.398438 37.714844 0 2.023437 2.023437 2.023437 5.304687 0 7.328124-1.011719 1.011719-2.339844 1.519532-3.664063 1.519532zm0 0" fill="#1a414c"/><path d="m212.148438 405.589844c-1.328126 0-2.652344-.507813-3.664063-1.519532-3.082031-3.078124-7.175781-4.773437-11.527344-4.773437-4.355469 0-8.449219 1.695313-11.53125 4.773437-2.023437 2.023438-5.304687 2.023438-7.328125 0-2.023437-2.023437-2.023437-5.304687 0-7.332031 5.039063-5.035156 11.734375-7.808593 18.859375-7.808593 7.121094 0 13.820313 2.773437 18.855469 7.808593 2.023438 2.023438 2.023438 5.304688 0 7.332031-1.011719 1.011719-2.339844 1.519532-3.664062 1.519532zm0 0" fill="#1a414c"/></svg>