<?xml version="1.0" encoding="iso-8859-1"?>
<!-- Generator: Adobe Illustrator 19.0.0, SVG Export Plug-In . SVG Version: 6.00 Build 0)  -->
<svg version="1.1" id="Capa_1" xmlns="http://www.w3.org/2000/svg" xmlns:xlink="http://www.w3.org/1999/xlink" x="0px" y="0px"
	 viewBox="0 0 512 512" style="enable-background:new 0 0 512 512;" xml:space="preserve">
<path style="fill:#FFDB0C;" d="M256,512L256,512c139.695-52.258,232.276-185.739,232.276-334.887V86.716
	c-47.892,0-86.716-38.824-86.716-86.716H256H110.44c0,47.892-38.824,86.716-86.716,86.716v90.396
	C23.724,326.261,116.305,459.742,256,512L256,512z"/>
<path style="fill:#FBBF00;" d="M256,512L256,512c139.695-52.258,232.276-185.739,232.276-334.887V86.716
	c-47.892,0-86.716-38.824-86.716-86.716H256C256,0,256,398,256,512L256,512z"/>
<polygon style="fill:#F1F1F2;" points="223.642,346.281 146.64,269.28 189.066,226.853 223.642,261.429 322.934,162.137 
	365.36,204.563 "/>
<polygon style="fill:#E6E6E6;" points="256,313.923 256,229.071 322.934,162.137 365.36,204.563 "/>
<g>
</g>
<g>
</g>
<g>
</g>
<g>
</g>
<g>
</g>
<g>
</g>
<g>
</g>
<g>
</g>
<g>
</g>
<g>
</g>
<g>
</g>
<g>
</g>
<g>
</g>
<g>
</g>
<g>
</g>
</svg>
