<svg height="511pt" viewBox="-31 1 511 511.99998" width="511pt" xmlns="http://www.w3.org/2000/svg"><path d="m321.265625 401.390625c22.957031 18.550781 49.757813 52.621094 49.757813 110.609375h-292.5625c0-57.988281 26.800781-92.058594 49.757812-110.609375zm0 0" fill="#465059"/><path d="m87.621094 457.84375c-6.386719 17.292969-9.160156 35.761719-9.160156 54.15625h20.601562c0-57.988281 26.804688-92.058594 49.761719-110.609375h-20.605469c-12.195312 9.855469-25.476562 24.089844-35.246094 43.964844-2 4.066406-3.78125 8.238281-5.351562 12.488281zm0 0" fill="#3c474d"/><path d="m199.382812 480.082031c-50.703124-21.027343-71.164062-78.691406-71.164062-78.691406 17.203125-13.902344 32.253906-19.089844 32.253906-19.089844h128.542969s15.050781 5.1875 32.25 19.089844c0 0-20.457031 57.664063-71.160156 78.691406zm0 0" fill="#efedee"/><path d="m134.316406 415.023438c4.820313-5.257813 9.746094-9.785157 14.507813-13.632813 17.199219-13.902344 32.25-19.089844 32.25-19.089844h-20.605469s-1.46875.507813-4.015625 1.628907c-10.152344 4.46875-19.617187 10.496093-28.234375 17.460937 0 0 1.941406 5.460937 6.097656 13.632813zm0 0" fill="#d4d2d3"/><path d="m250.105469 480.082031c-7.746094 3.199219-16.179688 5.550781-25.363281 6.71875-9.183594-1.167969-17.617188-3.519531-25.359376-6.71875 3.621094-30.414062 10.765626-55.644531 10.765626-55.644531l14.59375-17.261719 14.59375 17.261719s7.144531 25.230469 10.769531 55.644531zm0 0" fill="#c0344a"/><path d="m255.351562 389.898438s-.710937 13.898437-16.015624 34.542968h-29.1875c-15.300782-20.644531-16.011719-34.542968-16.011719-34.542968zm0 0" fill="#da5b65"/><path d="m113.441406 512v-39.863281c0-4.269531 3.460938-7.726563 7.726563-7.726563s7.726562 3.457032 7.726562 7.726563v39.863281zm0 0" fill="#3c474d"/><path d="m320.589844 512v-39.863281c0-4.269531 3.460937-7.726563 7.726562-7.726563 4.269532 0 7.726563 3.457032 7.726563 7.726563v39.863281zm0 0" fill="#3c474d"/><path d="m14.589844 221.367188c0-53.820313 22.03125-104.347657 62.039062-142.269532 39.632813-37.570312 92.234375-58.261718 148.113282-58.261718 55.878906 0 108.480468 20.691406 148.117187 58.261718 40.003906 37.921875 62.039063 88.449219 62.039063 142.269532zm0 0" fill="#c86d5c"/><path d="m138.4375 79.097656c32.230469-30.550781 73.039062-49.9375 117.210938-56.117187-10.144532-1.417969-20.46875-2.140625-30.90625-2.140625-55.878907 0-108.480469 20.691406-148.113282 58.257812-40.007812 37.925782-62.039062 88.449219-62.039062 142.273438h61.808594c0-53.824219 22.035156-104.347656 62.039062-142.273438zm0 0" fill="#ad4f3d"/><path d="m37.628906 20.839844h374.226563v109.011718h-374.226563zm0 0" fill="#465059"/><path d="m448.984375 224.578125c0 21.789063-17.667969 39.457031-39.460937 39.457031-21.789063 0-39.457032-17.667968-39.457032-39.457031 0-21.792969 17.667969-39.460937 39.457032-39.460937 21.792968 0 39.460937 17.667968 39.460937 39.460937zm0 0" fill="#dfb297"/><path d="m76 168.84375c-21.625 8.1875-35.988281 29.035156-36.039062 52.152344v.371094c0 96.738281 82.730468 175.160156 184.78125 175.160156 102.054687 0 184.78125-78.421875 184.78125-175.160156 0-17.238282-2.628907-33.894532-7.523438-49.628907-2.996094-9.621093-13.75-14.367187-22.957031-10.277343-121.484375 53.933593-205.320313-29.621094-303.042969 7.382812zm0 0" fill="#fbc4ac"/><path d="m70.867188 221.367188c0-.121094 0-.246094 0-.371094.03125-14.890625 6.007812-38.601563 16.03125-55.789063-3.617188 1.058594-7.246094 2.253907-10.902344 3.636719-10.117188 3.832031-18.648438 10.4375-24.867188 18.753906-2.703125-1.601562-6.320312-2.480468-11.167968-2.480468-21.792969 0-39.460938 17.667968-39.460938 39.460937 0 21.789063 17.667969 39.457031 39.460938 39.457031 2.007812 0 3.808593-.152344 5.417968-.441406 19.933594 76.335938 92.671875 132.933594 179.363282 132.933594 5.207031 0 10.355468-.214844 15.453124-.617188-94.820312-7.441406-169.328124-82.738281-169.328124-174.542968zm0 0" fill="#dfb297"/><path d="m321.265625 236.324219c-4.269531 0-7.726563-3.457031-7.726563-7.726563v-18.765625c0-4.269531 3.457032-7.726562 7.726563-7.726562 4.265625 0 7.726563 3.457031 7.726563 7.726562v18.765625c0 4.269532-3.460938 7.726563-7.726563 7.726563zm0 0" fill="#3c474d"/><path d="m334.046875 263.910156h-25.5625c-4.265625 0-7.726563-3.457031-7.726563-7.726562 0-4.265625 3.460938-7.722656 7.726563-7.722656h25.5625c4.265625 0 7.726563 3.457031 7.726563 7.722656 0 4.269531-3.460938 7.726562-7.726563 7.726562zm0 0" fill="#f98084"/><path d="m128.21875 236.324219c-4.265625 0-7.726562-3.457031-7.726562-7.726563v-18.765625c0-4.269531 3.460937-7.726562 7.726562-7.726562 4.269531 0 7.726562 3.457031 7.726562 7.726562v18.765625c0 4.269532-3.457031 7.726563-7.726562 7.726563zm0 0" fill="#3c474d"/><path d="m141 263.910156h-25.5625c-4.265625 0-7.722656-3.457031-7.722656-7.726562 0-4.265625 3.457031-7.722656 7.722656-7.722656h25.5625c4.269531 0 7.726562 3.457031 7.726562 7.722656 0 4.269531-3.457031 7.726562-7.726562 7.726562zm0 0" fill="#f98084"/><path d="m224.742188 262.851562c-8.957032 0-17.371094-3.746093-23.082032-10.28125-2.808594-3.210937-2.480468-8.09375.734375-10.902343 3.210938-2.808594 8.09375-2.480469 10.902344.734375 2.773437 3.175781 6.945313 4.996094 11.445313 4.996094s8.671874-1.820313 11.445312-4.996094c2.8125-3.214844 7.691406-3.539063 10.902344-.734375 3.214844 2.808593 3.542968 7.691406.734375 10.902343-5.710938 6.535157-14.125 10.28125-23.082031 10.28125zm0 0" fill="#3c474d"/><path d="m37.628906 20.839844h374.226563v56.277344h-374.226563zm0 0" fill="#3c474d"/><path d="m436.015625 0h-422.546875c-7.160156 0-12.96875 5.804688-12.96875 12.96875v20.273438c0 7.164062 5.808594 12.96875 12.96875 12.96875h422.546875c7.164063 0 12.96875-5.804688 12.96875-12.96875v-20.273438c0-7.164062-5.804687-12.96875-12.96875-12.96875zm0 0" fill="#465059"/></svg>