<svg height="512pt" viewBox="0 -27 512.001 512" width="512pt" xmlns="http://www.w3.org/2000/svg"><path d="m62.84375 441.792969h-31.421875c-4.300781 0-7.785156-3.480469-7.785156-7.769531 0-4.292969 3.484375-7.769532 7.785156-7.769532h31.421875c4.300781 0 7.789062 3.476563 7.789062 7.769532 0 4.289062-3.488281 7.769531-7.789062 7.769531zm0 0" fill="#a5acb3"/><path d="m480.578125 441.792969h-31.449219c-4.304687 0-7.789062-3.480469-7.789062-7.769531 0-4.292969 3.484375-7.769532 7.789062-7.769532h31.449219c4.300781 0 7.785156 3.476563 7.785156 7.769532 0 4.289062-3.484375 7.769531-7.785156 7.769531zm0 0" fill="#a5acb3"/><path d="m255.984375 24.347656v78.054688c32.238281-32.050782 66.816406 4.226562 92.367187 0 8.730469-1.457032 16.121094-7.226563 16.121094-16.082032v-45.890624c0-13.722657-11.800781-16.78125-23.917968-14.800782-33.203126 5.421875-54.578126-20.128906-84.570313-1.28125zm0 0" fill="#64b0d9" fill-rule="evenodd"/><path d="m364.472656 86.320312v-45.890624c0-13.722657-11.800781-16.78125-23.917968-14.800782-1.285157.207032-2.570313.378906-3.855469.496094 3.09375 2.417969 4.992187 6.234375 4.992187 11.742188v45.917968c0 8.273438-6.453125 13.898438-14.480468 15.730469 7.503906 2.390625 14.628906 3.964844 21.140624 2.886719 8.730469-1.457032 16.121094-7.226563 16.121094-16.082032zm0 0" fill="#4a83c9" fill-rule="evenodd"/><path d="m255.984375 145.875c-4.300781 0-7.785156-3.476562-7.785156-7.769531v-130.335938c0-4.289062 3.484375-7.769531 7.785156-7.769531s7.789063 3.480469 7.789063 7.769531v130.335938c0 4.292969-3.488282 7.769531-7.789063 7.769531zm0 0" fill="#b5722f"/><g fill-rule="evenodd"><path d="m76.246094 457.914062h359.480468c7.386719 0 13.402344-6.03125 13.402344-13.375v-25.578124c-.144531-3.90625-.527344-5.886719-4.148437-11.480469l-74.523438-115.667969c-32.148437-48.683594-63.28125-98.214844-94.878906-147.25-5.34375-7.722656-12.46875-11.566406-19.59375-11.597656-7.125.03125-14.25 3.875-19.59375 11.597656l-169.371094 262.886719c-3.621093 5.59375-4.175781 4.867187-4.175781 11.480469v25.609374c0 7.34375 6.042969 13.375 13.402344 13.375zm0 0" fill="#fcc368"/><path d="m238.640625 144.5625c31.59375 49.035156 62.722656 98.5625 94.875 147.25l74.523437 115.667969c3.621094 5.59375 4.003907 7.574219 4.179688 11.476562v25.582031c0 7.34375-6.046875 13.375-13.433594 13.375h36.941406c7.386719 0 13.402344-6.03125 13.402344-13.375v-25.582031c-.144531-3.902343-.527344-5.882812-4.148437-11.476562l-74.523438-115.667969c-7.328125-11.101562-14.628906-22.261719-21.871093-33.449219-24.5-37.789062-48.59375-75.953125-73.003907-113.800781-5.34375-7.722656-12.46875-11.566406-19.597656-11.597656-6.628906.03125-13.257813 3.378906-18.453125 10.050781.378906.496094.757812 1.023437 1.109375 1.546875zm0 0" fill="#ffa719"/><path d="m480.578125 426.914062v25.957032c0 2.828125 2.308594 5.128906 5.140625 5.128906h21.113281c2.832031 0 5.167969-2.300781 5.167969-5.128906v-51.917969c0-2.824219-2.335938-5.128906-5.167969-5.128906h-21.113281c-2.832031 0-5.140625 2.304687-5.140625 5.128906zm0 0" fill="#b5722f"/><path d="m0 400.953125v51.917969c0 2.828125 2.308594 5.128906 5.140625 5.128906h21.113281c2.832032 0 5.167969-2.300781 5.167969-5.128906v-51.917969c0-2.828125-2.335937-5.128906-5.167969-5.128906h-21.113281c-2.832031 0-5.140625 2.304687-5.140625 5.128906zm0 0" fill="#b5722f"/><path d="m249.589844 246.621094c-12.089844 59.203125-43.394532 123.855468-86.117188 162.898437-4.058594 5.621094-4.058594 9.496094-4.058594 12.847657v35.546874h96.570313 96.660156v-35.546874c0-3.351563 0-7.226563-4.058593-12.847657-42.722657-39.042969-74.027344-103.695312-86.117188-162.898437-1.605469-8.332032-11.59375-8.332032-12.878906 0zm0 0" fill="#f78411"/><path d="m348.585938 409.519531c-42.722657-39.042969-74.027344-103.691406-86.117188-162.894531-1.605469-8.335938-11.59375-8.335938-12.878906 0-2.132813 10.515625-4.90625 21.210938-8.207032 31.902344 14.308594 53.8125 43.453126 109.433594 81.765626 144.453125 4.0625 5.621093 4.0625 9.46875 4.0625 12.847656v22.085937h25.433593v-35.546874c0-3.351563 0-7.226563-4.058593-12.847657zm0 0" fill="#f74311"/></g></svg>