<svg height="512pt" viewBox="0 0 512 512.00106" width="512pt" xmlns="http://www.w3.org/2000/svg"><path d="m123.871094 487.226562h-41.289063v-66.0625s4.292969 0 25.269531-15.527343c3.136719 4.707031 5.863282 9.910156 7.761719 15.527343 8.257813 24.773438 8.257813 66.0625 8.257813 66.0625zm0 0" fill="#8034ad"/><path d="m206.371094 279.039062c-10.984375 27.582032-33.035156 73.332032-65.984375 100.832032-13.789063 11.480468-24.445313 19.820312-32.535157 25.765625-20.976562 15.523437-25.269531 15.523437-25.269531 15.523437v-49.546875s16.515625 0 24.773438-8.257812c8.257812-8.257813 8.257812-24.777344 8.257812-24.777344s-8.257812-16.515625 8.257813-33.03125 41.289062 0 41.289062 0 0-16.515625 16.515625-24.773437c8.589844-4.292969 17.261719-4.128907 24.695313-1.734376zm0 0" fill="#8034ad"/><path d="m429.421875 421.164062v66.0625h-41.292969s0-41.289062 8.257813-66.0625c1.902343-5.617187 4.625-10.820312 7.765625-15.527343 20.972656 15.527343 25.269531 15.527343 25.269531 15.527343zm0 0" fill="#8034ad"/><path d="m429.421875 276.644531v.082031c-1.074219-.328124-2.148437-.660156-3.304687-.988281 1.15625.246094 2.230468.574219 3.304687.90625zm0 0" fill="#8034ad"/><path d="m404.644531 363.355469c8.257813 8.257812 24.777344 8.257812 24.777344 8.257812v49.550781s-4.296875 0-25.269531-15.527343c-8.09375-5.945313-18.746094-14.285157-32.539063-25.765625-32.949219-27.5-54.996093-73.25-65.980469-100.828125 7.429688-2.394531 16.101563-2.5625 24.691407 1.734375 16.515625 8.257812 16.515625 24.773437 16.515625 24.773437s24.773437-16.515625 41.289062 0c16.519532 16.515625 8.257813 33.03125 8.257813 33.03125s0 16.515625 8.257812 24.773438zm0 0" fill="#8034ad"/><path d="m383.175781 182.335938c-19.40625-2.972657-41.621093-5.449219-66.808593-7.015626-3.882813-.25-7.84375-.496093-11.890626-.664062-15.113281-.824219-31.300781-1.238281-48.476562-1.238281s-33.363281.414062-48.472656 1.238281c-4.046875.167969-8.011719.414062-11.894532.664062-24.195312 1.484376-45.667968 3.878907-64.578124 6.6875-.824219.082032-1.570313.25-2.3125.332032 51.117187-41.207032 94.308593-91.664063 127.175781-149.058594.082031-.164062.082031-.246094.082031-.246094s0 .082032.082031.246094c21.636719 37.90625 47.898438 72.753906 77.875 103.96875 15.441407 16.019531 31.875 31.132812 49.21875 45.085938zm0 0" fill="#f40e34"/><path d="m82.582031 276.644531v210.582031h-82.582031v-247.742187h.992188c-1.0742192 5.367187-1.0742192 10.984375.082031 16.515625.660156 3.304688 1.734375 6.605469 3.304687 9.746094 7.097656 14.617187 21.882813 23.121094 37.160156 23.121094 6.027344 0 12.140626-1.238282 17.835938-4.042969.25-.085938 7.765625-3.554688 23.207031-8.179688zm0 0" fill="#06aae9"/><path d="m512 239.484375v8.09375c0-2.726563-.246094-5.449219-.824219-8.09375zm0 0" fill="#06aae9"/><path d="m512 247.578125v239.648437h-82.582031v-210.5c15.277343 4.460938 22.710937 7.847657 22.792969 7.929688 5.945312 2.972656 12.222656 4.375 18.5 4.375 15.109374 0 29.726562-8.339844 36.910156-22.792969 1.652344-3.300781 2.808594-6.769531 3.46875-10.238281.582031-2.808594.910156-5.617188.910156-8.421875zm0 0" fill="#06aae9"/><path d="m429.421875 276.726562v94.886719s-16.519531 0-24.777344-8.257812c-8.257812-8.257813-8.257812-24.773438-8.257812-24.773438s8.257812-16.519531-8.257813-33.03125c-16.515625-16.519531-41.289062 0-41.289062 0s0-16.519531-16.515625-24.777343c-8.589844-4.292969-17.257813-4.128907-24.691407-1.734376-6.855468 2.148438-12.636718 6.03125-16.601562 9.992188-8.257812 8.257812-33.03125 8.257812-33.03125 8.257812s-24.773438 0-33.03125-8.257812c-3.964844-3.964844-9.746094-7.84375-16.597656-9.992188-7.433594-2.394531-16.105469-2.558593-24.695313 1.734376-16.515625 8.257812-16.515625 24.777343-16.515625 24.777343s-24.773437-16.519531-41.289062 0c-16.515625 16.515625-8.257813 33.03125-8.257813 33.03125s0 16.515625-8.257812 24.773438c-8.257813 8.257812-24.773438 8.257812-24.773438 8.257812v-94.96875c24.113281-7.101562 67.382813-16.679687 131.796875-19.652343v-.082032c12.964844-.578125 26.839844-.910156 41.621094-.910156s28.65625.332031 41.621094.910156v.082032c8.835937.410156 17.175781.90625 25.1875 1.566406 6.359375.496094 12.550781 1.074218 18.414062 1.652344 2.480469.332031 4.957032.578124 7.351563.828124 7.347656.824219 14.203125 1.734376 20.726562 2.808594 5.53125.824219 10.734375 1.730469 15.691407 2.558594.660156.082031 1.238281.164062 1.816406.332031 8.421875 1.566407 16.019531 3.136719 22.710937 4.707031.660157.082032 1.320313.246094 1.898438.410157 2.3125.578125 4.542969 1.15625 6.605469 1.652343 2.890624.742188 5.613281 1.488282 8.09375 2.230469 1.15625.328125 2.230468.660157 3.304687.988281zm0 0" fill="#f40e34"/><path d="m429.421875 276.644531v.082031c-1.074219-.328124-2.148437-.660156-3.304687-.988281 1.15625.246094 2.230468.574219 3.304687.90625zm0 0" fill="#f40e34"/><path d="m304.476562 174.65625c-15.113281-.824219-31.300781-1.238281-48.476562-1.238281s-33.363281.414062-48.472656 1.238281c5.945312-9 11.394531-18 15.441406-26.011719 16.019531-32.039062 32.042969-110.492187 32.949219-115.363281.082031-.164062.082031-.246094.082031-.246094s0 .082032.082031.246094c.910157 4.871094 16.929688 83.324219 32.949219 115.363281 4.046875 8.011719 9.5 17.011719 15.445312 26.011719zm0 0" fill="#06aae9"/><g fill="#ffd422"><path d="m24.773438 388.128906 16.515624-16.519531 16.515626 16.519531-16.515626 16.515625zm0 0"/><path d="m41.289062 371.613281-16.515624-16.515625 16.515624-33.035156 16.519532 33.035156zm0 0"/><path d="m41.289062 404.644531-16.515624 16.519531 16.515624 33.03125 16.519532-33.03125zm0 0"/><path d="m0 487.226562h123.871094v24.773438h-123.871094zm0 0"/><path d="m454.1875 388.128906 16.515625-16.515625 16.515625 16.515625-16.515625 16.515625zm0 0"/><path d="m470.710938 371.613281 16.515624-16.515625-16.515624-33.035156-16.515626 33.035156zm0 0"/><path d="m470.710938 404.644531 16.515624 16.519531-16.515624 33.03125-16.515626-33.03125zm0 0"/><path d="m388.128906 487.226562h123.871094v24.773438h-123.871094zm0 0"/></g><path d="m120.652344 183.578125c-7.1875 1.15625-13.957032 2.394531-20.398438 3.714844-21.390625 4.210937-38.152344 8.917969-50.621094 13.046875 5.78125-7.515625 11.476563-16.433594 16.433594-26.917969 17.421875-37.082031 25.101563-69.699219 24.855469-73.914063.992187 3.71875 9.164063 35.179688 24.691406 73.914063 1.402344 3.546875 3.054688 6.933594 5.039063 10.15625zm0 0" fill="#06aae9"/><path d="m462.371094 200.339844c-12.46875-4.128906-29.234375-8.835938-50.621094-13.046875-6.359375-1.238281-13.214844-2.5625-20.398438-3.71875 1.980469-3.21875 3.632813-6.605469 5.039063-10.15625 15.523437-38.730469 23.699219-70.195313 24.691406-73.910157-.246093 4.210938 7.433594 36.832032 24.855469 73.910157 4.953125 10.488281 10.652344 19.40625 16.433594 26.921875zm0 0" fill="#06aae9"/><path d="m421.164062 99.097656v-33.035156l66.0625 16.519531zm0 0" fill="#ffd422"/><path d="m90.839844 99.097656v-33.035156l66.0625 16.519531zm0 0" fill="#ffd422"/><path d="m256 33.03125v-33.03125l66.066406 16.515625zm0 0" fill="#ffd422"/><path d="m512 247.578125c0 2.804687-.328125 5.613281-.90625 8.421875-.664062 3.46875-1.816406 6.9375-3.46875 10.238281-7.1875 14.453125-21.800781 22.792969-36.914062 22.792969-6.277344 0-12.550782-1.402344-18.5-4.375-.082032-.082031-7.515626-3.46875-22.789063-7.929688v-.082031c-1.074219-.328125-2.148437-.660156-3.304687-.90625-2.476563-.742187-5.203126-1.488281-8.09375-2.230469-2.0625-.496093-4.292969-1.074218-6.605469-1.652343-.578125-.164063-1.238281-.328125-1.898438-.410157-6.691406-1.570312-14.289062-3.140624-22.710937-4.707031-.578125-.167969-1.15625-.25-1.816406-.332031-4.953126-.828125-10.15625-1.734375-15.691407-2.558594-6.523437-1.074218-13.375-1.984375-20.726562-2.808594-2.394531-.25-4.871094-.496093-7.347657-.828124-5.863281-.578126-12.058593-1.15625-18.417968-1.652344-8.007813-.660156-16.351563-1.15625-25.1875-1.566406v-.082032c-12.964844-.578125-26.839844-.910156-41.621094-.910156s-28.652344.332031-41.617188.910156v.082032c-64.414062 2.972656-107.6875 12.550781-131.800781 19.652343-15.441406 4.625-22.957031 8.09375-23.207031 8.175781-5.695312 2.808594-11.808594 4.046876-17.835938 4.046876-15.277343 0-30.058593-8.507813-37.160156-23.125-1.570312-3.136719-2.644531-6.441407-3.304687-9.742188-1.1562502-5.535156-1.1562502-11.148438-.082031-16.519531 1.898437-9.742188 7.265624-18.660157 15.523437-24.773438h.082031c.085938-.082031.332032-.246093.664063-.496093.164062-.082032.410156-.246094.660156-.410157.742187-.414062 1.816406-1.074219 3.054687-1.984375.578126-.328125 1.238282-.660156 1.816407-.988281 2.476562-1.242187 11.230469-5.453125 26.839843-10.488281 12.46875-4.128906 29.230469-8.835938 50.621094-13.046875 6.441406-1.324219 13.210938-2.5625 20.398438-3.71875 2.640625-.414063 5.28125-.824219 8.089844-1.238281.742187-.082032 1.488281-.246094 2.3125-.332032 18.910156-2.804687 40.382812-5.203125 64.578124-6.6875 3.882813-.246094 7.847657-.496094 11.894532-.660156 15.109375-.828125 31.296875-1.242188 48.472656-1.242188s33.363281.414063 48.476562 1.242188c4.042969.164062 8.007813.410156 11.890626.660156 25.1875 1.570313 47.402343 4.046875 66.808593 7.019532 2.804688.410156 5.53125.824218 8.175781 1.238281 7.183594 1.15625 14.039063 2.476562 20.394532 3.714843 21.390625 4.210938 38.152344 8.917969 50.625 13.050782 15.605468 5.035156 24.359375 9.246094 26.835937 10.484375 11.808594 5.863281 19.574219 16.683593 21.96875 28.65625.578125 2.644531.824219 5.371093.824219 8.097656zm0 0" fill="#ffd422"/><path d="m429.421875 276.644531v.082031c-1.074219-.328124-2.148437-.660156-3.304687-.988281 1.15625.246094 2.230468.574219 3.304687.90625zm0 0" fill="#ffd422"/></svg>